<svg width="24" height="24" viewBox="0 0 24 24" fill="none" xmlns="http://www.w3.org/2000/svg">
<path d="M11.2898 12.0002L14.8298 8.46019C15.0161 8.27283 15.1206 8.01938 15.1206 7.75519C15.1206 7.49101 15.0161 7.23756 14.8298 7.05019C14.7369 6.95646 14.6263 6.88207 14.5044 6.8313C14.3825 6.78053 14.2518 6.75439 14.1198 6.75439C13.9878 6.75439 13.8571 6.78053 13.7352 6.8313C13.6134 6.88207 13.5028 6.95646 13.4098 7.05019L9.16982 11.2902C9.07609 11.3832 9.0017 11.4938 8.95093 11.6156C8.90016 11.7375 8.87402 11.8682 8.87402 12.0002C8.87402 12.1322 8.90016 12.2629 8.95093 12.3848C9.0017 12.5066 9.07609 12.6172 9.16982 12.7102L13.4098 17.0002C13.5033 17.0929 13.6141 17.1662 13.7359 17.216C13.8578 17.2657 13.9882 17.291 14.1198 17.2902C14.2514 17.291 14.3819 17.2657 14.5037 17.216C14.6256 17.1662 14.7364 17.0929 14.8298 17.0002C15.0161 16.8128 15.1206 16.5594 15.1206 16.2952C15.1206 16.031 15.0161 15.7776 14.8298 15.5902L11.2898 12.0002Z" fill="black"/>
</svg>
