<svg width="24" height="24" viewBox="0 0 24 24" fill="none" xmlns="http://www.w3.org/2000/svg">
<path d="M14.8297 11.2902L10.5897 7.05019C10.4967 6.95646 10.3861 6.88207 10.2643 6.8313C10.1424 6.78053 10.0117 6.75439 9.8797 6.75439C9.74769 6.75439 9.61698 6.78053 9.49512 6.8313C9.37326 6.88207 9.26266 6.95646 9.1697 7.05019C8.98345 7.23756 8.87891 7.49101 8.87891 7.75519C8.87891 8.01938 8.98345 8.27283 9.1697 8.46019L12.7097 12.0002L9.1697 15.5402C8.98345 15.7276 8.87891 15.981 8.87891 16.2452C8.87891 16.5094 8.98345 16.7628 9.1697 16.9502C9.26314 17.0429 9.37395 17.1162 9.49579 17.166C9.61763 17.2157 9.74809 17.241 9.8797 17.2402C10.0113 17.241 10.1418 17.2157 10.2636 17.166C10.3854 17.1162 10.4963 17.0429 10.5897 16.9502L14.8297 12.7102C14.9234 12.6172 14.9978 12.5066 15.0486 12.3848C15.0994 12.2629 15.1255 12.1322 15.1255 12.0002C15.1255 11.8682 15.0994 11.7375 15.0486 11.6156C14.9978 11.4938 14.9234 11.3832 14.8297 11.2902Z" fill="black"/>
</svg>
