<svg width="24" height="24" viewBox="0 0 24 24" fill="none" xmlns="http://www.w3.org/2000/svg">
<path d="M8.4599 8.28978C8.2716 8.09617 8.01409 7.98529 7.74404 7.98154C7.47399 7.97779 7.21351 8.08147 7.0199 8.26978C6.82629 8.45808 6.71542 8.71558 6.71167 8.98564C6.70792 9.25569 6.8116 9.51617 6.9999 9.70978L9.3399 11.9998L6.9999 14.2898C6.90617 14.3827 6.83178 14.4933 6.78101 14.6152C6.73024 14.7371 6.7041 14.8678 6.7041 14.9998C6.7041 15.1318 6.73024 15.2625 6.78101 15.3844C6.83178 15.5062 6.90617 15.6168 6.9999 15.7098C7.09286 15.8035 7.20346 15.8779 7.32532 15.9287C7.44718 15.9794 7.57789 16.0056 7.7099 16.0056C7.84191 16.0056 7.97262 15.9794 8.09448 15.9287C8.21634 15.8779 8.32694 15.8035 8.4199 15.7098L11.4199 12.7098C11.5136 12.6168 11.588 12.5062 11.6388 12.3844C11.6896 12.2625 11.7157 12.1318 11.7157 11.9998C11.7157 11.8678 11.6896 11.7371 11.6388 11.6152C11.588 11.4933 11.5136 11.3827 11.4199 11.2898L8.4599 8.28978ZM16.9599 11.2898L13.9599 8.28978C13.7716 8.10147 13.5162 7.99569 13.2499 7.99569C12.9836 7.99569 12.7282 8.10147 12.5399 8.28978C12.3516 8.47808 12.2458 8.73348 12.2458 8.99978C12.2458 9.26608 12.3516 9.52147 12.5399 9.70978L14.8399 11.9998L12.5399 14.2898C12.4462 14.3827 12.3718 14.4933 12.321 14.6152C12.2702 14.7371 12.2441 14.8678 12.2441 14.9998C12.2441 15.1318 12.2702 15.2625 12.321 15.3844C12.3718 15.5062 12.4462 15.6168 12.5399 15.7098C12.6329 15.8035 12.7435 15.8779 12.8653 15.9287C12.9872 15.9794 13.1179 16.0056 13.2499 16.0056C13.3819 16.0056 13.5126 15.9794 13.6345 15.9287C13.7563 15.8779 13.8669 15.8035 13.9599 15.7098L16.9599 12.7098C17.0563 12.6195 17.1338 12.511 17.1881 12.3906C17.2423 12.2701 17.2721 12.1401 17.2759 12.0081C17.2796 11.8761 17.2571 11.7446 17.2097 11.6213C17.1624 11.498 17.0911 11.3854 16.9999 11.2898H16.9599Z" fill="black"/>
</svg>
