<svg width="25" height="24" viewBox="0 0 25 24" fill="none" xmlns="http://www.w3.org/2000/svg">
<path d="M9.79 13.29L4.5 18.59V17C4.5 16.7348 4.39464 16.4804 4.20711 16.2929C4.01957 16.1054 3.76522 16 3.5 16C3.23478 16 2.98043 16.1054 2.79289 16.2929C2.60536 16.4804 2.5 16.7348 2.5 17V21C2.50158 21.1307 2.52876 21.2598 2.58 21.38C2.68147 21.6243 2.87565 21.8185 3.12 21.92C3.24022 21.9712 3.36932 21.9984 3.5 22H7.5C7.76522 22 8.01957 21.8946 8.20711 21.7071C8.39464 21.5196 8.5 21.2652 8.5 21C8.5 20.7348 8.39464 20.4804 8.20711 20.2929C8.01957 20.1054 7.76522 20 7.5 20H5.91L11.21 14.71C11.3983 14.5217 11.5041 14.2663 11.5041 14C11.5041 13.7337 11.3983 13.4783 11.21 13.29C11.0217 13.1017 10.7663 12.9959 10.5 12.9959C10.2337 12.9959 9.9783 13.1017 9.79 13.29ZM5.91 4H7.5C7.76522 4 8.01957 3.89464 8.20711 3.70711C8.39464 3.51957 8.5 3.26522 8.5 3C8.5 2.73478 8.39464 2.48043 8.20711 2.29289C8.01957 2.10536 7.76522 2 7.5 2H3.5C3.36932 2.00158 3.24022 2.02876 3.12 2.08C2.87565 2.18147 2.68147 2.37565 2.58 2.62C2.52876 2.74022 2.50158 2.86932 2.5 3V7C2.5 7.26522 2.60536 7.51957 2.79289 7.70711C2.98043 7.89464 3.23478 8 3.5 8C3.76522 8 4.01957 7.89464 4.20711 7.70711C4.39464 7.51957 4.5 7.26522 4.5 7V5.41L9.79 10.71C9.88296 10.8037 9.99356 10.8781 10.1154 10.9289C10.2373 10.9797 10.368 11.0058 10.5 11.0058C10.632 11.0058 10.7627 10.9797 10.8846 10.9289C11.0064 10.8781 11.117 10.8037 11.21 10.71C11.3037 10.617 11.3781 10.5064 11.4289 10.3846C11.4797 10.2627 11.5058 10.132 11.5058 10C11.5058 9.86799 11.4797 9.73728 11.4289 9.61542C11.3781 9.49356 11.3037 9.38296 11.21 9.29L5.91 4ZM21.5 16C21.2348 16 20.9804 16.1054 20.7929 16.2929C20.6054 16.4804 20.5 16.7348 20.5 17V18.59L15.21 13.29C15.0217 13.1017 14.7663 12.9959 14.5 12.9959C14.2337 12.9959 13.9783 13.1017 13.79 13.29C13.6017 13.4783 13.4959 13.7337 13.4959 14C13.4959 14.2663 13.6017 14.5217 13.79 14.71L19.09 20H17.5C17.2348 20 16.9804 20.1054 16.7929 20.2929C16.6054 20.4804 16.5 20.7348 16.5 21C16.5 21.2652 16.6054 21.5196 16.7929 21.7071C16.9804 21.8946 17.2348 22 17.5 22H21.5C21.6307 21.9984 21.7598 21.9712 21.88 21.92C22.1243 21.8185 22.3185 21.6243 22.42 21.38C22.4712 21.2598 22.4984 21.1307 22.5 21V17C22.5 16.7348 22.3946 16.4804 22.2071 16.2929C22.0196 16.1054 21.7652 16 21.5 16ZM22.42 2.62C22.3185 2.37565 22.1243 2.18147 21.88 2.08C21.7598 2.02876 21.6307 2.00158 21.5 2H17.5C17.2348 2 16.9804 2.10536 16.7929 2.29289C16.6054 2.48043 16.5 2.73478 16.5 3C16.5 3.26522 16.6054 3.51957 16.7929 3.70711C16.9804 3.89464 17.2348 4 17.5 4H19.09L13.79 9.29C13.6963 9.38296 13.6219 9.49356 13.5711 9.61542C13.5203 9.73728 13.4942 9.86799 13.4942 10C13.4942 10.132 13.5203 10.2627 13.5711 10.3846C13.6219 10.5064 13.6963 10.617 13.79 10.71C13.883 10.8037 13.9936 10.8781 14.1154 10.9289C14.2373 10.9797 14.368 11.0058 14.5 11.0058C14.632 11.0058 14.7627 10.9797 14.8846 10.9289C15.0064 10.8781 15.117 10.8037 15.21 10.71L20.5 5.41V7C20.5 7.26522 20.6054 7.51957 20.7929 7.70711C20.9804 7.89464 21.2348 8 21.5 8C21.7652 8 22.0196 7.89464 22.2071 7.70711C22.3946 7.51957 22.5 7.26522 22.5 7V3C22.4984 2.86932 22.4712 2.74022 22.42 2.62Z" fill="white"/>
</svg>
