<svg width="690" height="42" viewBox="0 0 690 42" fill="none" xmlns="http://www.w3.org/2000/svg">
<rect y="2" width="690" height="40" rx="10" fill="#C0D3FF"/>
<rect x="2" y="4" width="600" height="36" rx="10" fill="#326CF6"/>
<path d="M602 37C611.946 37 620 28.9464 620 19C620 9.05364 611.946 1 602 1C592.054 1 584 9.05364 584 19C584 28.9464 592.054 37 602 37Z" fill="white" stroke="#FF8B03" stroke-width="2"/>
<path d="M602.023 25.2208C605.459 25.2208 608.244 22.4357 608.244 19C608.244 15.5644 605.459 12.7793 602.023 12.7793C598.588 12.7793 595.803 15.5644 595.803 19C595.803 22.4357 598.588 25.2208 602.023 25.2208Z" fill="#FF8B03"/>
<path d="M441.404 28V15.31H450.008V17.2H443.708V28H441.404ZM453.593 28.18C452.657 28.18 451.847 27.988 451.163 27.604C450.479 27.22 449.945 26.674 449.561 25.966C449.189 25.258 449.003 24.418 449.003 23.446C449.003 22.474 449.189 21.64 449.561 20.944C449.945 20.236 450.479 19.69 451.163 19.306C451.847 18.922 452.657 18.73 453.593 18.73C454.529 18.73 455.339 18.922 456.023 19.306C456.719 19.69 457.253 20.236 457.625 20.944C458.009 21.64 458.201 22.474 458.201 23.446C458.201 24.418 458.009 25.258 457.625 25.966C457.253 26.674 456.719 27.22 456.023 27.604C455.339 27.988 454.529 28.18 453.593 28.18ZM453.593 26.452C454.301 26.452 454.865 26.206 455.285 25.714C455.705 25.21 455.915 24.454 455.915 23.446C455.915 22.438 455.705 21.688 455.285 21.196C454.865 20.704 454.301 20.458 453.593 20.458C452.885 20.458 452.321 20.704 451.901 21.196C451.481 21.688 451.271 22.438 451.271 23.446C451.271 24.454 451.481 25.21 451.901 25.714C452.321 26.206 452.885 26.452 453.593 26.452ZM462.295 28V20.674H459.181V18.91H467.659V20.674H464.527V28H462.295ZM473.14 28.18C472.204 28.18 471.394 27.988 470.71 27.604C470.026 27.22 469.492 26.674 469.108 25.966C468.736 25.258 468.55 24.418 468.55 23.446C468.55 22.474 468.736 21.64 469.108 20.944C469.492 20.236 470.026 19.69 470.71 19.306C471.394 18.922 472.204 18.73 473.14 18.73C474.076 18.73 474.886 18.922 475.57 19.306C476.266 19.69 476.8 20.236 477.172 20.944C477.556 21.64 477.748 22.474 477.748 23.446C477.748 24.418 477.556 25.258 477.172 25.966C476.8 26.674 476.266 27.22 475.57 27.604C474.886 27.988 474.076 28.18 473.14 28.18ZM473.14 26.452C473.848 26.452 474.412 26.206 474.832 25.714C475.252 25.21 475.462 24.454 475.462 23.446C475.462 22.438 475.252 21.688 474.832 21.196C474.412 20.704 473.848 20.458 473.14 20.458C472.432 20.458 471.868 20.704 471.448 21.196C471.028 21.688 470.818 22.438 470.818 23.446C470.818 24.454 471.028 25.21 471.448 25.714C471.868 26.206 472.432 26.452 473.14 26.452ZM479.88 28V18.91H484.722C485.862 18.91 486.696 19.12 487.224 19.54C487.752 19.948 488.016 20.53 488.016 21.286C488.016 21.862 487.824 22.342 487.44 22.726C487.056 23.11 486.546 23.35 485.91 23.446V23.194C486.69 23.242 487.29 23.47 487.71 23.878C488.13 24.286 488.34 24.814 488.34 25.462C488.34 26.242 488.04 26.86 487.44 27.316C486.84 27.772 485.988 28 484.884 28H479.88ZM481.968 26.614H484.65C485.178 26.614 485.58 26.506 485.856 26.29C486.144 26.074 486.288 25.756 486.288 25.336C486.288 24.916 486.144 24.598 485.856 24.382C485.58 24.166 485.178 24.058 484.65 24.058H481.968V26.614ZM481.968 22.672H484.452C484.932 22.672 485.304 22.57 485.568 22.366C485.832 22.15 485.964 21.85 485.964 21.466C485.964 21.082 485.832 20.788 485.568 20.584C485.304 20.38 484.932 20.278 484.452 20.278H481.968V22.672ZM494.479 28.18C493.543 28.18 492.733 27.988 492.049 27.604C491.365 27.22 490.831 26.674 490.447 25.966C490.075 25.258 489.889 24.418 489.889 23.446C489.889 22.474 490.075 21.64 490.447 20.944C490.831 20.236 491.365 19.69 492.049 19.306C492.733 18.922 493.543 18.73 494.479 18.73C495.415 18.73 496.225 18.922 496.909 19.306C497.605 19.69 498.139 20.236 498.511 20.944C498.895 21.64 499.087 22.474 499.087 23.446C499.087 24.418 498.895 25.258 498.511 25.966C498.139 26.674 497.605 27.22 496.909 27.604C496.225 27.988 495.415 28.18 494.479 28.18ZM494.479 26.452C495.187 26.452 495.751 26.206 496.171 25.714C496.591 25.21 496.801 24.454 496.801 23.446C496.801 22.438 496.591 21.688 496.171 21.196C495.751 20.704 495.187 20.458 494.479 20.458C493.771 20.458 493.207 20.704 492.787 21.196C492.367 21.688 492.157 22.438 492.157 23.446C492.157 24.454 492.367 25.21 492.787 25.714C493.207 26.206 493.771 26.452 494.479 26.452ZM506.159 28V18.91H508.391V22.474H512.495V18.91H514.727V28H512.495V24.202H508.391V28H506.159ZM520.868 28.18C520.076 28.18 519.38 27.994 518.78 27.622C518.18 27.238 517.712 26.692 517.376 25.984C517.04 25.276 516.872 24.43 516.872 23.446C516.872 22.462 517.04 21.622 517.376 20.926C517.712 20.218 518.18 19.678 518.78 19.306C519.38 18.922 520.076 18.73 520.868 18.73C521.636 18.73 522.308 18.922 522.884 19.306C523.472 19.678 523.862 20.182 524.054 20.818H523.856L524.054 18.91H526.214C526.178 19.282 526.142 19.66 526.106 20.044C526.082 20.428 526.07 20.806 526.07 21.178V28H523.838L523.82 26.128H524.036C523.844 26.752 523.454 27.25 522.866 27.622C522.278 27.994 521.612 28.18 520.868 28.18ZM521.498 26.452C522.206 26.452 522.776 26.206 523.208 25.714C523.64 25.21 523.856 24.454 523.856 23.446C523.856 22.438 523.64 21.688 523.208 21.196C522.776 20.704 522.206 20.458 521.498 20.458C520.79 20.458 520.22 20.704 519.788 21.196C519.356 21.688 519.14 22.438 519.14 23.446C519.14 24.454 519.35 25.21 519.77 25.714C520.202 26.206 520.778 26.452 521.498 26.452ZM536.801 28.18C536.117 28.18 535.439 28.054 534.767 27.802C534.095 27.538 533.519 27.184 533.039 26.74L533.813 25.012C534.257 25.42 534.737 25.726 535.253 25.93C535.769 26.134 536.291 26.236 536.819 26.236C537.887 26.236 538.703 25.87 539.267 25.138C539.843 24.406 540.131 23.314 540.131 21.862V20.512H540.347C540.263 21.112 540.059 21.634 539.735 22.078C539.411 22.522 539.003 22.864 538.511 23.104C538.031 23.332 537.491 23.446 536.891 23.446C536.159 23.446 535.499 23.272 534.911 22.924C534.335 22.576 533.879 22.096 533.543 21.484C533.219 20.86 533.057 20.158 533.057 19.378C533.057 18.55 533.237 17.818 533.597 17.182C533.969 16.546 534.473 16.048 535.109 15.688C535.745 15.316 536.477 15.13 537.305 15.13C538.913 15.13 540.149 15.682 541.013 16.786C541.889 17.878 542.327 19.426 542.327 21.43C542.327 22.858 542.105 24.076 541.661 25.084C541.229 26.092 540.599 26.86 539.771 27.388C538.943 27.916 537.953 28.18 536.801 28.18ZM537.449 21.61C537.893 21.61 538.283 21.514 538.619 21.322C538.955 21.13 539.219 20.86 539.411 20.512C539.603 20.152 539.699 19.744 539.699 19.288C539.699 18.82 539.603 18.412 539.411 18.064C539.219 17.716 538.955 17.446 538.619 17.254C538.283 17.05 537.893 16.948 537.449 16.948C537.005 16.948 536.615 17.05 536.279 17.254C535.943 17.446 535.679 17.716 535.487 18.064C535.307 18.412 535.217 18.82 535.217 19.288C535.217 19.744 535.307 20.152 535.487 20.512C535.679 20.86 535.943 21.13 536.279 21.322C536.615 21.514 537.005 21.61 537.449 21.61ZM548.548 28.18C547.06 28.18 545.914 27.616 545.11 26.488C544.306 25.348 543.904 23.728 543.904 21.628C543.904 19.504 544.306 17.89 545.11 16.786C545.914 15.682 547.06 15.13 548.548 15.13C550.048 15.13 551.194 15.682 551.986 16.786C552.79 17.89 553.192 19.498 553.192 21.61C553.192 23.722 552.79 25.348 551.986 26.488C551.194 27.616 550.048 28.18 548.548 28.18ZM548.548 26.272C549.364 26.272 549.97 25.9 550.366 25.156C550.762 24.4 550.96 23.218 550.96 21.61C550.96 20.002 550.762 18.838 550.366 18.118C549.97 17.386 549.364 17.02 548.548 17.02C547.744 17.02 547.138 17.386 546.73 18.118C546.334 18.838 546.136 20.002 546.136 21.61C546.136 23.218 546.334 24.4 546.73 25.156C547.138 25.9 547.744 26.272 548.548 26.272ZM559.719 28H557.793L565.281 15.31H567.207L559.719 28ZM557.937 22.888C556.917 22.888 556.119 22.54 555.543 21.844C554.967 21.148 554.679 20.2 554.679 19C554.679 17.788 554.967 16.84 555.543 16.156C556.131 15.472 556.929 15.13 557.937 15.13C558.957 15.13 559.755 15.478 560.331 16.174C560.907 16.87 561.195 17.812 561.195 19C561.195 20.2 560.907 21.148 560.331 21.844C559.755 22.54 558.957 22.888 557.937 22.888ZM557.937 21.448C558.381 21.448 558.723 21.25 558.963 20.854C559.215 20.458 559.341 19.84 559.341 19C559.341 18.148 559.215 17.536 558.963 17.164C558.723 16.78 558.381 16.588 557.937 16.588C557.493 16.588 557.145 16.774 556.893 17.146C556.653 17.518 556.533 18.136 556.533 19C556.533 19.864 556.653 20.488 556.893 20.872C557.145 21.256 557.493 21.448 557.937 21.448ZM567.063 28.18C566.043 28.18 565.245 27.832 564.669 27.136C564.093 26.428 563.805 25.474 563.805 24.274C563.805 23.062 564.093 22.12 564.669 21.448C565.257 20.764 566.055 20.422 567.063 20.422C568.083 20.422 568.881 20.77 569.457 21.466C570.033 22.15 570.321 23.086 570.321 24.274C570.321 25.474 570.033 26.428 569.457 27.136C568.881 27.832 568.083 28.18 567.063 28.18ZM567.063 26.722C567.507 26.722 567.849 26.53 568.089 26.146C568.341 25.75 568.467 25.126 568.467 24.274C568.467 23.422 568.341 22.81 568.089 22.438C567.849 22.054 567.507 21.862 567.063 21.862C566.619 21.862 566.271 22.054 566.019 22.438C565.779 22.81 565.659 23.422 565.659 24.274C565.659 25.138 565.779 25.762 566.019 26.146C566.271 26.53 566.619 26.722 567.063 26.722Z" fill="white"/>
</svg>
