<svg width="24" height="16" viewBox="0 0 24 16" fill="none" xmlns="http://www.w3.org/2000/svg">
<rect x="0.25" y="0.25" width="23.5" height="15.5" rx="1.75" fill="white" stroke="#F5F5F5" stroke-width="0.5"/>
<mask id="mask0_368_487" style="mask-type:luminance" maskUnits="userSpaceOnUse" x="0" y="0" width="24" height="16">
<rect x="0.25" y="0.25" width="23.5" height="15.5" rx="1.75" fill="white" stroke="white" stroke-width="0.5"/>
</mask>
<g mask="url(#mask0_368_487)">
<path fill-rule="evenodd" clip-rule="evenodd" d="M12 11.7333C14.2091 11.7333 16 10.0618 16 7.99993C16 5.93807 14.2091 4.2666 12 4.2666C9.79086 4.2666 8 5.93807 8 7.99993C8 10.0618 9.79086 11.7333 12 11.7333Z" fill="#E01B41"/>
<mask id="mask1_368_487" style="mask-type:luminance" maskUnits="userSpaceOnUse" x="8" y="4" width="8" height="8">
<path fill-rule="evenodd" clip-rule="evenodd" d="M12 11.7333C14.2091 11.7333 16 10.0618 16 7.99993C16 5.93807 14.2091 4.2666 12 4.2666C9.79086 4.2666 8 5.93807 8 7.99993C8 10.0618 9.79086 11.7333 12 11.7333Z" fill="white"/>
</mask>
<g mask="url(#mask1_368_487)">
<path fill-rule="evenodd" clip-rule="evenodd" d="M8.00012 8.5335C9.14298 9.5335 10.8573 10.1335 12.0001 8.5335C13.143 6.9335 15.4287 6.9335 16.0001 8.5335C16.5716 10.1335 16.0001 11.7335 16.0001 11.7335H8.00012C8.00012 11.7335 6.85727 7.5335 8.00012 8.5335Z" fill="#0E4B9C"/>
</g>
<path opacity="0.75" fill-rule="evenodd" clip-rule="evenodd" d="M17.8696 2.98971C17.7076 3.07704 17.6547 3.27475 17.7515 3.43131L19.1151 5.63563C19.212 5.7922 19.4218 5.84832 19.5839 5.76099L19.9868 5.5439C20.1488 5.45657 20.2017 5.25886 20.1049 5.1023L18.7413 2.89798C18.6444 2.74142 18.4345 2.68529 18.2725 2.77262L17.8696 2.98971ZM16.385 3.78971C16.2229 3.87704 16.1701 4.07475 16.2669 4.23131L17.6305 6.43563C17.7273 6.5922 17.9372 6.64832 18.0993 6.56099L18.5022 6.3439C18.6642 6.25657 18.7171 6.05886 18.6202 5.9023L17.2567 3.69798C17.1598 3.54142 16.9499 3.48529 16.7879 3.57262L16.385 3.78971ZM3.89514 10.898C3.79829 10.7414 3.85116 10.5437 4.01322 10.4564L4.41608 10.2393C4.57814 10.152 4.78803 10.2081 4.88488 10.3646L6.24845 12.569C6.3453 12.7255 6.29243 12.9232 6.13037 13.0106L5.72751 13.2277C5.56544 13.315 5.35555 13.2589 5.25871 13.1023L3.89514 10.898ZM5.49783 9.65637C5.33577 9.7437 5.2829 9.94142 5.37975 10.098L6.74332 12.3023C6.84017 12.4589 7.05006 12.515 7.21212 12.4277L7.61498 12.2106C7.77704 12.1232 7.82991 11.9255 7.73306 11.769L6.36949 9.56464C6.27265 9.40808 6.06276 9.35196 5.9007 9.43929L5.49783 9.65637ZM17.6305 9.56465C17.7273 9.40808 17.9372 9.35196 18.0993 9.43929L18.5022 9.65637C18.6642 9.7437 18.7171 9.94142 18.6202 10.098L17.2567 12.3023C17.1598 12.4589 16.9499 12.515 16.7879 12.4277L16.385 12.2106C16.2229 12.1232 16.1701 11.9255 16.2669 11.769L17.6305 9.56465ZM19.5839 10.2393C19.4218 10.152 19.212 10.2081 19.1151 10.3646L17.7515 12.569C17.6547 12.7255 17.7076 12.9232 17.8696 13.0106L18.2725 13.2277C18.4345 13.315 18.6444 13.2589 18.7413 13.1023L20.1049 10.898C20.2017 10.7414 20.1488 10.5437 19.9868 10.4564L19.5839 10.2393ZM5.25871 2.89798C5.35555 2.74142 5.56544 2.68529 5.72751 2.77262L6.13037 2.98971C6.29243 3.07704 6.3453 3.27475 6.24845 3.43131L4.88488 5.63563C4.78803 5.79219 4.57814 5.84832 4.41608 5.76099L4.01322 5.5439C3.85116 5.45657 3.79829 5.25886 3.89514 5.1023L5.25871 2.89798ZM7.21212 3.57262C7.05006 3.48529 6.84017 3.54142 6.74332 3.69798L5.37975 5.9023C5.2829 6.05886 5.33577 6.25657 5.49783 6.3439L5.90069 6.56099C6.06276 6.64832 6.27265 6.59219 6.36949 6.43563L7.73306 4.23131C7.82991 4.07475 7.77704 3.87704 7.61498 3.78971L7.21212 3.57262Z" fill="#262626"/>
</g>
</svg>
