<svg width="56" height="56" viewBox="0 0 56 56" fill="none" xmlns="http://www.w3.org/2000/svg">
<rect width="56" height="56" rx="10" fill="white"/>
<rect x="8" y="8" width="40" height="40" rx="20" fill="#29A0DD"/>
<path d="M21.9076 29.9008L17.2121 28.3749C17.2121 28.3749 16.6429 28.1488 16.8421 27.6402C16.8706 27.5272 16.9559 27.4424 17.1836 27.3011C18.2365 26.5946 36.4212 20.0954 36.4212 20.0954C36.4212 20.0954 36.9335 19.9258 37.2465 20.0389C37.3888 20.0954 37.4742 20.1519 37.5596 20.3779C37.588 20.4627 37.6165 20.6323 37.588 20.8018C37.588 20.9148 37.5596 21.0279 37.5596 21.1974C37.4457 22.9777 34.1446 36.2306 34.1446 36.2306C34.1446 36.2306 33.9454 36.9935 33.2339 37.0217C32.9778 37.0217 32.6648 36.9653 32.2948 36.6544C30.9004 35.4676 26.091 32.2462 25.0096 31.5397C24.9526 31.5115 24.9242 31.455 24.9242 31.3985C24.8957 31.3137 24.9811 31.2289 24.9811 31.2289C24.9811 31.2289 33.3762 23.8254 33.6039 23.0342C33.6323 22.9777 33.547 22.9494 33.4616 22.9777C32.8924 23.1755 23.2452 29.2509 22.1638 29.9008C22.0784 29.9291 21.9076 29.9008 21.9076 29.9008Z" fill="white"/>
</svg>
